<?xml version="1.0" encoding="utf-8" ?><svg xmlns="http://www.w3.org/2000/svg" xmlns:xlink="http://www.w3.org/1999/xlink" width="2550" height="191" viewBox="0 0 2550 191"><path fill="white" transform="scale(1 0.773279)" d="M0 0L2550 0L2550 32.0961L2550 64.5506L2550 247L93.6367 247L92.6719 247L0 247L0 64.5506L0 32.0896L0 0Z"/><path fill="#BF975F" transform="scale(1 0.773279)" d="M0 0L2550 0L2550 32.0961L2550 64.5506L0 64.5506L0 32.0896L0 0Z"/><path fill="#9C3954" transform="scale(1 0.773279)" d="M0 0L2550 0L2550 32.0961L0 32.0896L0 0Z"/><path fill="#F8F6CF" transform="scale(1 0.773279)" d="M44.59 237.429C44.4037 237.357 44.218 237.291 44.0277 237.229C38.178 235.347 32.301 237.117 27.8029 235.728C26.4232 235.302 25.8759 234.15 25.2129 232.96C21.5918 226.464 22.6612 217.031 24.6213 210.206C25.746 206.29 27.2558 201.876 31.0392 199.813C36.2615 196.966 49.6855 208.165 55.3791 209.874C54.2419 214.656 55.8381 219.482 58.3863 223.575C58.9067 224.411 59.4487 224.937 60.3614 225.34C57.6909 229 57.357 230.973 56.9216 235.392C55.0613 237.641 52.8562 241.075 49.9733 241.886C46.9935 241.056 46.4655 239.788 44.59 237.429Z"/><path fill="#D9DB6F" transform="scale(1 0.773279)" d="M44.59 237.429C44.2083 235.891 44.115 234.086 44.1404 232.498C44.1838 229.782 44.8633 227.24 46.8458 225.309C49.2598 224.583 49.7325 224.83 52.1451 225.638C55.0877 227.86 55.8881 232.013 56.9216 235.392C55.0613 237.641 52.8562 241.075 49.9733 241.886C46.9935 241.056 46.4655 239.788 44.59 237.429Z"/><path fill="#F8F6CF" transform="scale(1 0.773279)" d="M69.4532 211.238C70.3022 214.634 70.4717 216.103 73.202 218.359C75.2423 216.621 75.0483 215.325 75.4829 212.764C76.74 216.091 77.9146 220.833 80.9389 222.904C83.4118 222.971 84.7962 222.808 86.6883 221.016C88.1773 219.605 89.5515 218.038 90.9206 216.511C91.6307 218.774 92.107 220.691 94.1248 222.158C91.7454 226.254 89.3961 230.369 87.0769 234.5C83.9441 233.787 81.7196 233.88 78.5927 234.567C75.8763 229.827 74.2405 224.475 72.4163 219.345C69.8112 222.93 67.3021 226.841 63.7358 229.543C62.9306 227.317 62.1817 226.83 60.3614 225.34C64.5586 221.379 66.9827 216.346 69.4532 211.238Z"/><path fill="#D9DB6F" transform="scale(1 0.773279)" d="M85.3426 197.451C88.2026 203.463 91.7172 209.634 90.9206 216.511C89.5515 218.038 88.1773 219.605 86.6883 221.016C84.7962 222.808 83.4118 222.971 80.9389 222.904C77.9146 220.833 76.74 216.091 75.4829 212.764C76.7562 207.701 82.2242 201.718 85.3426 197.451Z"/><path fill="#D9DB6F" transform="scale(1 0.773279)" d="M94.1248 222.158C96.7763 222.7 97.6721 222.748 99.2218 225.071C101.049 227.812 102.054 232.128 103.087 235.267C99.9305 239.171 96.7405 243.053 93.6367 247L92.6719 247C91.6859 242.825 88.94 238.391 87.0769 234.5C89.3961 230.369 91.7454 226.254 94.1248 222.158Z"/><path fill="#D9DB6F" transform="scale(1 0.773279)" d="M62.4833 197.713C64.5462 202.372 66.4765 207.07 69.4532 211.238C66.9827 216.346 64.5586 221.379 60.3614 225.34C59.4487 224.937 58.9067 224.411 58.3863 223.575C55.8381 219.482 54.2419 214.656 55.3791 209.874C57.7883 205.865 60.3644 201.882 62.4833 197.713Z"/><path fill="white" transform="scale(1 0.773279)" d="M60.3911 206.41C62.5942 207.629 63.3784 208.675 64.3224 210.996C64.5859 214.346 63.3027 216.767 61.9016 219.715C59.5182 218.069 59.1295 217.621 57.902 214.999C57.7526 211.7 59 209.311 60.3911 206.41Z"/><path fill="#D9DB6F" transform="scale(1 0.773279)" d="M72.4163 219.345C74.2405 224.475 75.8763 229.827 78.5927 234.567C76.4278 238.714 72.966 242.659 70.1971 246.453C68.2315 243.651 66.2765 240.7 64.6351 237.693C62.9574 234.619 62.7798 232.824 63.7358 229.543C67.3021 226.841 69.8112 222.93 72.4163 219.345Z"/><path fill="#BF975F" transform="scale(1 0.773279)" d="M1096.39 157.792C1100.22 152.011 1105.94 140.666 1113.08 139.179C1115.13 138.751 1117.25 138.626 1119.06 137.464C1128.06 131.684 1157.26 94.9497 1163.68 92.6333C1166.24 91.7114 1169.35 93.1319 1171.49 94.5546C1192.59 108.556 1217.15 157.453 1222.05 182.266C1222.96 186.848 1224.27 193.65 1221.46 197.761C1218.19 202.537 1194.34 204.645 1187.65 207.009C1182.99 208.652 1179.17 213.491 1174.5 214.304C1170.98 214.918 1166.58 214.25 1162.99 214.031C1155.22 208.91 1148.43 207.577 1139.22 208.7C1124.99 207.673 1110.84 205.634 1096.7 203.769C1100.32 200.709 1105.51 196.572 1105.92 191.452C1106.16 188.443 1105.04 186.514 1103.21 184.314C1100.9 182.771 1098.79 182.392 1096.09 182.912C1094.15 183.286 1092.51 184.493 1091.42 186.125C1086.97 192.804 1088.55 203.401 1078.67 205.435C1075.31 206.126 1069.37 205.745 1066.5 203.813C1065.48 203.126 1065.02 201.668 1064.8 200.493C1062.37 187.538 1073.63 159.499 1080.99 148.964C1083.22 145.776 1085.73 143.265 1089.63 142.423C1092.23 143.042 1093.65 143.438 1095.12 145.905C1096.89 148.896 1096.38 154.352 1096.39 157.792Z"/><path fill="#6F97D0" transform="scale(1 0.773279)" d="M1764.97 221C1764.99 210.614 1765.42 198.279 1759.2 189.371C1747.84 173.101 1724.74 180.364 1708.1 177.433C1693.77 174.912 1684.27 167.644 1676.05 155.911C1672.67 151.082 1667.76 143.713 1668.82 137.657C1669.55 136.69 1670 135.615 1671.24 135.418L1671.38 135.395C1675.97 134.672 1688.71 139.248 1694.88 139.42C1728.31 140.352 1750.25 127.408 1780 148.674L1782.12 148.272C1787.6 141.08 1794.14 138.279 1803.01 137.073C1821.09 134.617 1839.38 139.961 1857.47 139.763C1868.83 139.64 1880.44 135.742 1891.43 136.152C1892.78 139.637 1891.83 141.983 1890.36 145.295C1883.8 160.093 1873.01 170.559 1857.93 176.348C1842.7 182.168 1826.09 183.398 1810.17 179.885L1804.41 182.636C1801.56 184.148 1799.08 185.725 1797.14 188.364C1790.86 196.932 1794.45 211.376 1795.9 221L1764.97 221Z"/><path fill="#6F97D0" transform="scale(1 0.773279)" d="M1782.12 148.272C1787.6 141.08 1794.14 138.279 1803.01 137.073C1821.09 134.617 1839.38 139.961 1857.47 139.763C1868.83 139.64 1880.44 135.742 1891.43 136.152C1892.78 139.637 1891.83 141.983 1890.36 145.295C1883.8 160.093 1873.01 170.559 1857.93 176.348C1842.7 182.168 1826.09 183.398 1810.17 179.885L1804.41 182.636C1809.61 175.823 1812.67 169.424 1815.33 161.35L1819.11 156.502L1821.81 154.6C1823.99 154.345 1826.14 154.081 1828.29 153.6C1829.03 153.434 1829.39 152.5 1829.8 151.859C1828.86 149.378 1827.99 148.553 1825.63 147.315C1819.57 144.139 1815.55 144.061 1809.2 146.058C1804.2 150.497 1798.99 155.6 1791.76 155.141C1786.93 154.835 1783.33 151.886 1780 148.674L1782.12 148.272Z"/><path fill="#F6F6F6" transform="scale(1 0.773279)" d="M1782.12 148.272C1786.16 150.907 1789.71 152.784 1794.66 151.716C1807.41 148.959 1813.61 136.709 1827.94 145.797C1832.02 148.389 1835.78 152.516 1839.08 156.018C1832.85 155.86 1826.05 154.913 1821.15 159.569C1815.78 164.662 1815.2 174.106 1810.17 179.885L1804.41 182.636C1809.61 175.823 1812.67 169.424 1815.33 161.35L1819.11 156.502L1821.81 154.6C1823.99 154.345 1826.14 154.081 1828.29 153.6C1829.03 153.434 1829.39 152.5 1829.8 151.859C1828.86 149.378 1827.99 148.553 1825.63 147.315C1819.57 144.139 1815.55 144.061 1809.2 146.058C1804.2 150.497 1798.99 155.6 1791.76 155.141C1786.93 154.835 1783.33 151.886 1780 148.674L1782.12 148.272Z"/><path fill="#BF975F" transform="scale(1 0.773279)" d="M2107.28 112.442C2114.48 112.002 2146.77 110.26 2151.52 113.864C2156.4 117.568 2156.43 125.679 2157.22 131.284C2153.22 135.471 2149.04 140.266 2144.01 143.195C2137.98 146.71 2128.28 147.02 2123.76 152.297C2120.78 155.778 2120.12 161.517 2118.18 165.676C2115.37 171.724 2111.15 177.32 2107.9 183.178C2105.14 188.138 2102.75 193.908 2104.42 199.639C2106.51 206.802 2113.02 210.207 2119.09 213.547C2119.77 210.311 2120.55 207.072 2121.62 203.94C2122.88 200.256 2124.56 197.908 2128.09 196.175C2130.73 196.143 2131.75 196.205 2133.77 198.084C2138.53 202.513 2138.1 211.197 2138.38 217.155C2140.89 219.184 2145.82 222.512 2146.34 225.67L2144.06 226.076C2125.05 227.922 2103.99 229.262 2084.98 227.079L2073.45 219.537C2082.87 215.127 2089.65 213.58 2096.62 205.3L2099.25 191.869C2094.38 180.263 2087.89 173.752 2077.57 166.824L2073.19 153.312C2066.09 148.22 2059.69 143.694 2054.91 136.179C2056.73 131.328 2058.47 126.769 2061.35 122.411C2077.48 116.366 2090.06 113.064 2107.28 112.442Z"/><path fill="#B2B2B2" transform="scale(1 0.773279)" d="M144.274 140.087C144.249 140.062 144.224 140.036 144.198 140.01C142.914 138.741 141.362 138.079 139.552 138.111C132.565 138.235 118.041 142.433 112.394 137.052C112.291 136.953 112.194 136.851 112.096 136.747C112.664 134.568 113.538 133.863 115.477 132.726C120.037 130.052 125.906 130.281 130.465 127.271C137.34 122.729 143.123 112.82 150.372 109.866L152.026 110.704C153.358 114.911 152.508 121.366 150.491 125.261C149.037 128.071 147.115 130.75 145.324 133.357C163.629 138.873 180.783 150.757 200.068 152.187C224.213 153.977 248.887 133.428 272.511 142.704C274.035 152.691 271.296 160.699 265.326 168.816C258.068 178.687 246.945 187.301 235.355 191.368C224.024 193.833 213.196 195.128 201.596 195.087L195.747 194.626C194.654 194.8 157.898 213.211 151.349 215.868C156.504 207.256 163.928 200.411 168.267 191.207L177.109 187.506C162.126 176.067 153.413 156.205 144.274 140.087Z"/><path fill="#656565" transform="scale(1 0.773279)" d="M248.469 144.448C256.471 143.548 264.473 143.115 272.511 142.704C274.035 152.691 271.296 160.699 265.326 168.816C258.068 178.687 246.945 187.301 235.355 191.368C224.024 193.833 213.196 195.128 201.596 195.087L195.747 194.626L205.981 175.504C221.26 167.296 234.89 155.202 248.469 144.448Z"/><path fill="#656565" transform="scale(1 0.773279)" d="M144.274 140.087C149.919 141.279 152.323 145.736 155.316 150.332C166.798 167.96 165.793 169.231 185.072 180.238C184.337 182.752 183.74 184.482 181.279 185.827C180.085 186.479 178.441 187.252 177.109 187.506C162.126 176.067 153.413 156.205 144.274 140.087Z"/><path fill="#5A2E7B" transform="scale(1 0.773279)" d="M707.534 172.577C706.642 165.341 703.191 161.589 700.005 155.449C698.702 152.939 698.196 151.175 699.044 148.512C699.804 148.145 700.646 147.901 701.494 147.896C708.757 147.853 724.324 157.035 729.533 162.258C735.408 161.614 743.937 155.374 749.618 152.732C758.365 148.664 766 149.52 774.757 152.716C778.691 160.228 784.097 170.514 781.338 179.175C780.64 181.366 779.466 183.707 777.846 185.355C766.234 195.932 750.521 193.735 742.066 201.982C735.382 208.5 735.297 226.431 724.5 227.708C719.359 220.603 728.021 204.293 713.574 201.981C699.671 199.756 685.674 206.6 671.688 205.916C662.57 206.65 653.127 207.917 643.993 207.479L641.527 208.139C636.664 211.541 635.924 208.709 630.866 208.38C616.774 207.462 603.067 225.831 593.481 234.325C601.284 220.25 612.015 208.185 626.687 201.226C624.923 199.288 624.175 198.05 623.942 195.418C625.118 193.335 625.602 192.71 628.037 192.049C631.159 191.202 634.13 192.317 636.816 193.832C644.041 194.167 652.788 191.193 660.356 190.71C670.73 187.539 681.998 187.549 692.335 184.272C699.514 181.997 704.03 179.285 707.534 172.577Z"/><path fill="#F6F6F6" transform="scale(1 0.773279)" d="M626.687 201.226C624.923 199.288 624.175 198.05 623.942 195.418C625.118 193.335 625.602 192.71 628.037 192.049C631.159 191.202 634.13 192.317 636.816 193.832C633.773 196.182 630.177 199.712 626.687 201.226Z"/><path fill="#5A2E7B" transform="scale(1 0.773279)" d="M1424.87 142.723C1435.74 132.627 1441.53 121.233 1453.98 111.196C1449.85 118.606 1444.1 126.816 1441.46 134.886C1440.61 137.496 1440.08 140.677 1441.43 143.222C1445.34 150.622 1464.57 154.466 1472.3 156.892C1456.93 157.092 1443.52 153.481 1428.53 150.801C1419.88 162.49 1408.15 168.665 1396.34 176.623C1395.23 179.388 1394.28 182.919 1391.46 184.378C1388.22 186.055 1382.24 183.393 1378.97 182.345C1370.08 187.92 1361.01 194.474 1350.76 197.151C1350.88 197.521 1351.03 197.864 1351.19 198.215C1352.21 200.406 1364.15 208.863 1366.83 211.788C1357.07 207.923 1344.93 201.06 1334.44 204.493C1331.66 206.292 1327.19 207.156 1323.92 207.239C1319.57 207.328 1315.36 205.668 1312.23 202.63C1308.84 199.38 1307.16 194.896 1307.06 190.249C1306.8 178.455 1318 160.255 1325.9 152.037C1359.16 152.193 1391.73 144.151 1424.87 142.723Z"/><path fill="#E32E84" transform="scale(1 0.773279)" d="M2356.67 103.136C2359.89 102.936 2363.14 102.759 2366.35 103.132C2376.36 104.274 2385.51 109.323 2391.81 117.179C2397.9 125.015 2400.65 134.934 2399.47 144.785C2398.37 154.201 2393.54 162.784 2386.07 168.62C2374.22 177.964 2362.15 176.997 2348.13 175.331C2343.2 186.384 2338.15 197.38 2332.97 208.318C2331.18 211.782 2329.11 214.722 2326.31 217.456C2324.13 219.593 2322.42 220.57 2319.4 220.526L2317.78 218.496C2317.16 215.998 2317.01 213.819 2317.47 211.276C2319.86 198.032 2330.78 180.178 2341.84 172.534C2337.45 164.595 2330.27 160.159 2327.42 150.95C2324.53 141.61 2325.16 131.675 2329.78 122.988C2335.66 111.931 2345.19 106.664 2356.67 103.136Z"/><path fill="#32A08D" transform="scale(1 0.773279)" d="M489.007 159.362C487.191 151.41 484.017 136.235 488.081 128.736C489.173 126.72 490.063 126.469 492.117 125.862L493.652 126.704C495.991 135.413 490.9 145.351 493.097 154.321C494.115 155.395 494.698 156.178 496.121 156.701C500.143 158.181 505.423 156.722 509.72 157.362C514.277 158.041 516.482 160.045 519.151 163.658L519.796 165.997C531.433 178.009 541.436 193.523 557.37 200.158C566.35 203.897 585.235 200.892 587.693 209.718C586.704 214.034 583.659 216.546 580.04 218.825C565.233 228.153 544.989 229.007 528.351 225.187C512.694 221.592 493.637 213.032 484.82 199.011C482.047 194.601 480.862 190.558 480.387 185.401L480.084 184.269C479.406 182.143 478.872 180.044 478.849 177.8C478.765 169.815 483.795 164.693 489.007 159.362Z"/><path fill="#32A08D" transform="scale(1 0.773279)" d="M489.007 159.362C487.191 151.41 484.017 136.235 488.081 128.736C489.173 126.72 490.063 126.469 492.117 125.862L493.652 126.704C495.991 135.413 490.9 145.351 493.097 154.321C494.115 155.395 494.698 156.178 496.121 156.701C500.143 158.181 505.423 156.722 509.72 157.362C514.277 158.041 516.482 160.045 519.151 163.658L519.796 165.997C516.71 167.168 508.904 167.729 507.683 170.279C506.256 173.259 507.069 175.375 504.28 177.58C498.447 177.799 495.918 179.713 491.885 184.083L491.764 184.215C488.042 184.319 483.911 184.112 480.387 185.401L480.084 184.269C479.406 182.143 478.872 180.044 478.849 177.8C478.765 169.815 483.795 164.693 489.007 159.362Z"/><path fill="#F6F6F6" transform="scale(1 0.773279)" d="M519.151 163.658L519.796 165.997C516.71 167.168 508.904 167.729 507.683 170.279C506.256 173.259 507.069 175.375 504.28 177.58C498.447 177.799 495.918 179.713 491.885 184.083L491.764 184.215C488.042 184.319 483.911 184.112 480.387 185.401L480.084 184.269C481.993 182.773 483.45 179.621 485.795 178.864C487.201 178.41 487.64 178.858 488.848 179.499L489.403 182.455L490.733 183.029C494.058 180.304 494.495 177.789 495.924 173.883C498.233 172.781 499.574 174.706 502.009 175.427L503.977 173.945C504.785 171.086 504.417 168.449 504.106 165.547C507.084 163.043 514.461 166.065 519.151 163.658Z"/><path fill="white" transform="scale(1 0.773279)" d="M488.878 188.247C493.623 189.748 498.048 193.827 501.991 196.867C508.104 201.582 518.763 208.449 519.776 216.283C518.13 216.14 516.526 215.688 514.945 215.225C505.789 212.545 493.812 206.732 489.149 198.089C487.23 194.533 487.759 191.94 488.878 188.247Z"/><path fill="#D8544B" transform="scale(1 0.773279)" d="M967.18 136.542C965.237 131.304 963.465 127.766 959.953 123.346C956.897 119.499 952.177 114.192 952.747 109.176C953.216 109.031 953.724 108.93 954.215 108.912C960.839 108.663 970.432 116.975 974.98 121.242C975.013 125.311 974.549 129.5 974.318 133.57C976.638 130.199 979.078 126.1 982.301 123.547C983.725 122.419 985.692 121.676 987.494 121.896C992.675 122.529 995.868 127.859 998.845 131.673C1000.3 133.414 1000.29 133.861 1000.48 136.136C998.303 141.252 994.495 142.034 990.886 145.468C998.136 148.951 1004.33 152.776 1007.17 160.775C1007.77 162.465 1007.85 164.121 1007.73 165.899L1006.44 167.802C1004.13 168.121 1002.66 168.117 1000.7 166.631C998.402 164.893 996.32 162.365 994.349 160.257C991.327 162.723 991.013 165.327 990.314 169.032C987.955 171.929 988.298 177.299 985.725 180.593C983.999 182.804 982.397 184.354 979.636 184.716C974.109 179.235 980.631 161.841 977.75 154.03L976.351 153.455C970.86 158.041 972.839 174.358 970.644 181.811C967.313 193.122 960.785 203.718 956.018 214.505C961.56 216.772 967.868 219.583 972.052 223.977C972.894 224.861 972.679 225.282 972.648 226.44C966.99 227.161 955.409 219.742 949.366 218.119C933.515 213.863 914.832 220.085 900.035 225.261C902.453 221.773 905.071 217.933 908.373 215.244C918.69 206.843 931.531 209.053 943.739 210.312C947.853 206.093 956.874 190.103 960.93 183.932C957.183 183.341 952.194 188.89 948.38 188.229C948.34 188.222 948.3 188.213 948.26 188.206C947.998 188.158 947.747 188.104 947.493 188.021C948.876 186.046 949.877 184.478 950.354 182.057C947.995 179.093 944.329 181.414 942.8 178.998C940.99 176.136 943.37 172.865 940.591 170.094C939.019 170.67 937.669 171.416 936.245 172.292L934.862 170.736C934.625 169.214 934.23 168.01 934.71 166.521C938.281 155.445 955.789 147.139 965.291 142.294C957.719 140.77 949.605 138.495 942.144 141.65C932.059 145.916 927.927 161.45 924.102 170.869C925.965 161.595 929.236 152.601 932.19 143.629C927.329 146.866 922.86 150.786 918.328 154.463C918.195 157.431 918.071 160.006 916.935 162.794L915.549 163.315C915.385 163.1 915.237 162.882 915.098 162.651C910.777 155.479 914.305 132.413 916.269 124.418C917.051 132.986 917.715 141.564 918.258 150.151C923.792 142.038 930.081 131.81 940.165 129.04C950.108 126.309 958.909 131.829 967.18 136.542Z"/><path fill="#F6F6F6" transform="scale(1 0.773279)" d="M998.845 131.673C1000.3 133.414 1000.29 133.861 1000.48 136.136C998.303 141.252 994.495 142.034 990.886 145.468C985.959 143.82 980.161 143.918 975 143.554C982.186 138.948 994.408 138.626 998.845 131.673Z"/><path fill="#F6F6F6" transform="scale(1 0.773279)" d="M977.723 147.368C984.095 150.857 990.487 153.799 994.349 160.257C991.327 162.723 991.013 165.327 990.314 169.032C987.548 160.379 983.381 154.364 977.723 147.368Z"/><path fill="white" transform="scale(1 0.773279)" d="M966.043 149.787C966.907 149.891 967.905 150.709 968.645 151.172C969.2 152.159 969.665 153.266 969.826 154.396C970.85 161.614 967.647 172.688 963.171 178.502C960.82 181.556 958.43 181.703 954.882 182.164C954.721 177.546 955.689 173.125 956.171 168.545C955.735 168.236 955.306 167.911 954.923 167.537C952.869 165.532 952.851 165.246 952.805 162.447C955.17 156.847 961.183 153.116 966.043 149.787Z"/><path fill="#D8544B" transform="scale(1 0.773279)" d="M2224.26 160.9C2225.91 159.167 2227.71 156.287 2230.23 156.24C2233.06 156.186 2233.84 157.907 2236.27 155.791C2236.82 153.022 2237.3 150.496 2235.59 147.994C2230.89 141.132 2215.3 140.545 2216.09 130.021C2218.54 129.017 2221.28 129.238 2223.87 129.256L2224.05 128.205C2221.25 124.991 2216.06 123.906 2213.93 120.8C2213.73 120.506 2213.54 120.219 2213.37 119.904C2214.5 118.356 2214.96 118.316 2216.79 118.027C2220.99 117.364 2231.2 117.906 2234.58 120.461C2239.32 124.06 2241.71 134.036 2242.35 139.643C2243.06 145.878 2241.88 160.557 2245.92 164.921C2248.32 162.908 2249.42 161.456 2249.69 158.235C2250.06 153.776 2248.94 148.931 2248.19 144.537L2248.99 144.182C2251.86 146.946 2253.74 149.838 2255.71 153.282C2253.9 157.839 2251.02 163.237 2251.1 168.196L2252.05 169.703C2254.53 169.052 2255.97 168.503 2257.33 166.171C2259.86 161.848 2260.54 155.434 2261.52 150.546L2262.53 150.622C2263.95 154.104 2264.78 157.365 2265.39 161.074C2262.21 165.201 2258.02 169.65 2256.18 174.552L2256.45 176.479C2258.57 177.772 2258.81 177.951 2261.26 177.649C2266.75 173.689 2266.35 164.71 2270.97 161.212C2272.48 162.642 2273.07 163.467 2273.12 165.694C2273.19 169.369 2269.89 173.44 2267.48 175.897C2265.61 177.791 2263.63 179.643 2261.34 181.009L2263.59 186.538C2266.08 187.415 2267.68 187.053 2269.78 188.833L2268.18 191.96C2269.25 193.839 2270.8 195.278 2272.32 196.785C2269.2 196.171 2267.16 195.719 2264.25 197.339C2262.49 198.981 2261.5 200.904 2261.45 203.335C2261.42 205.001 2261.83 206.811 2262.16 208.442C2256.59 205.549 2246.32 208.038 2239.64 208.054C2236.34 209.918 2233.65 210.906 2229.89 211.41C2229.16 209.991 2240.25 200.793 2241.03 197.146C2241.3 195.831 2240.67 195.296 2239.99 194.231C2235.7 194.89 2232.39 199.927 2228.8 202.504C2223.75 206.128 2217.41 204.441 2211.78 203.489C2209.79 202.75 2208.33 194.708 2206.6 191.89C2206.23 191.347 2206.42 190.391 2206.44 189.752C2209.77 188.62 2214.75 190.469 2218.49 190.607C2222.11 190.74 2224.28 190.609 2226.96 188.111L2226.98 185.152C2226.12 183.912 2225.98 183.294 2224.43 182.975C2220.49 182.165 2214.73 183.912 2210.7 184.422C2202.52 185.454 2191.78 185.575 2185.02 180.271C2177.78 174.59 2177.64 167.173 2176.66 158.738L2177.12 156.045C2181.56 152.163 2184.13 157.887 2188.99 157.082L2190.14 157.942C2192.79 159.336 2196.42 160.927 2198.53 163.051C2203.49 168.055 2206.54 178.766 2215.25 177.72C2216.99 176.817 2218.57 176.103 2219.65 174.402C2217.85 172.181 2217.21 171.56 2216.86 168.626C2218.04 167.203 2219.18 165.82 2220.57 164.601C2221.63 163.045 2222.76 162.027 2224.26 160.9Z"/><path fill="#F6F6F6" transform="scale(1 0.773279)" d="M2239.64 208.054C2244.05 200.637 2244.84 190.511 2251.26 184.408C2254.41 181.418 2257.09 180.895 2261.34 181.009L2263.59 186.538C2266.08 187.415 2267.68 187.053 2269.78 188.833L2268.18 191.96C2269.25 193.839 2270.8 195.278 2272.32 196.785C2269.2 196.171 2267.16 195.719 2264.25 197.339C2262.49 198.981 2261.5 200.904 2261.45 203.335C2261.42 205.001 2261.83 206.811 2262.16 208.442C2256.59 205.549 2246.32 208.038 2239.64 208.054Z"/><path fill="#D8544B" transform="scale(1 0.773279)" d="M2257.74 183.792C2258.87 184.987 2258.78 185.298 2258.91 186.87C2257.09 191.235 2252.95 194.614 2249.62 197.876C2248.81 196.722 2248.78 195.873 2248.79 194.523C2250.52 190.207 2254.47 186.974 2257.74 183.792Z"/><path fill="#D8544B" transform="scale(1 0.773279)" d="M2262.8 189.683L2263.95 190.857C2263.94 191.074 2263.93 191.287 2263.9 191.502C2263.39 195.373 2258.22 198.919 2255.39 201.125C2254.71 200.181 2254.8 199.637 2254.76 198.511C2256.38 194.843 2259.85 192.273 2262.8 189.683Z"/><path fill="#F6F6F6" transform="scale(1 0.773279)" d="M2206.6 191.89C2211.99 193.99 2217.39 195.975 2223.05 193.492C2225.52 192.411 2227.86 190.436 2230.67 190.968C2231.3 191.816 2231.87 192.223 2231.7 193.329C2231.34 195.716 2229.74 197.738 2227.82 199.149C2222.79 202.855 2215.15 197.728 2211.78 203.489C2209.79 202.75 2208.33 194.708 2206.6 191.89Z"/><path fill="#F6F6F6" transform="scale(1 0.773279)" d="M2176.66 158.738L2177.12 156.045C2181.56 152.163 2184.13 157.887 2188.99 157.082L2190.14 157.942C2188.54 161.617 2190.77 163.778 2189.5 166.995C2185.22 165.895 2181.99 157.003 2177.65 157.826L2176.66 158.738Z"/><path fill="white" transform="scale(1 0.773279)" d="M2224.04 162.735C2230.9 162.766 2236.31 164.802 2242.49 167.483L2237.53 176.733C2236.26 177.539 2234.84 178.529 2233.43 179.037C2231.08 179.883 2229.58 179.029 2227.5 178.063C2223.66 173.524 2223.91 168.347 2224.04 162.735Z"/><path fill="#9C3954" transform="scale(1 0.773279)" d="M1551.25 94.6663C1553.12 96.8386 1552.3 99.3987 1553.92 101.353C1555.85 103.671 1561 103.849 1563.76 105.12C1565.48 105.911 1566.47 107.469 1567.1 109.186C1563.89 110.994 1560.12 109.088 1556.46 109.835C1555.39 111.426 1554.81 112.888 1554.69 114.792C1554.47 118.258 1555.16 126.117 1557.6 128.771C1564.17 135.929 1587.36 124.511 1594.29 119.844C1597.5 117.678 1604.81 109.949 1608.02 109.244C1608.59 109.119 1609.59 109.286 1610.21 109.302L1610.98 110.863C1606.41 130.923 1577.11 129.713 1566.73 145.036C1556.62 159.955 1562.61 202.996 1566.03 220.869C1571.99 223.464 1577.65 226.427 1583.33 229.559C1576.75 228.67 1565.85 228.372 1560.51 224.478C1559.12 223.465 1559.31 222.49 1559.05 220.875C1557.6 209.184 1556.65 196.929 1553.88 185.472C1553.3 183.03 1552.78 180.638 1550.6 179.307C1545.08 185.807 1553.54 207.514 1553.75 216.183C1553.81 218.965 1552.67 220.026 1550.88 221.918C1548.15 223.027 1546.74 222.966 1543.97 222.238C1537.78 217.143 1544.51 214.695 1544.15 208.391C1542.89 186.58 1538.2 165.085 1534.14 143.661C1520.71 137.352 1514.88 128.272 1508.47 115.54C1515.84 119.569 1521.61 126.172 1528.54 130.99C1533.37 129.835 1538.32 129.211 1543.23 128.506C1544.42 123.789 1547.1 116.226 1545.75 111.547C1542.5 109.192 1539.12 110.412 1535.68 108.667C1536.01 108.129 1536.36 107.609 1536.76 107.118C1539.46 103.778 1542.94 103.574 1546.94 103.129C1549.73 100.661 1550.09 98.115 1551.25 94.6663Z"/><path fill="#E32E84" transform="scale(1 0.773279)" d="M344.962 96.4575C353.618 99.3549 364.847 111.007 371.407 117.396C364.552 127.961 355.136 136.895 348.147 147.523C334.545 168.206 326.139 194.706 307.831 211.798C306.448 211.829 304.966 211.172 303.66 210.749C302.547 209.508 301.581 208.786 301.241 207.122C300.895 205.427 300.973 203.545 301.991 202.045C303.363 200.024 306.679 198.921 308.187 196.771C315.517 186.316 321.276 174.19 328.366 163.393C321.831 158.791 315.251 154.254 308.627 149.782C319.021 131.224 331.771 113.131 344.962 96.4575Z"/><path fill="#D9DB6F" transform="scale(1 0.773279)" d="M1258.46 108.101C1261.84 110.325 1263.68 109.019 1267.06 109.97C1270.67 110.988 1274.65 113.079 1277.95 114.878C1281.65 116.892 1286.07 120.611 1287.25 124.792C1287.86 126.953 1285.21 131.061 1284.16 132.96C1284.27 136.738 1286.83 139.075 1288.47 142.457C1288.33 144.311 1287.48 145.457 1286.36 146.868C1281.04 153.58 1274.01 160.853 1265.22 161.885C1265.1 161.967 1265.09 161.983 1264.97 162.041C1264.92 162.066 1264.87 162.088 1264.82 162.113C1264.53 162.256 1264.24 162.388 1263.93 162.495C1257.84 164.606 1245.93 158.655 1240.28 155.93C1239.43 147.963 1238.38 143.151 1233.36 136.586C1237.25 130.896 1244.02 113.747 1249.97 111.461C1253.44 110.127 1255.04 110.792 1258.46 108.101Z"/><path fill="#F6F6F6" transform="scale(1 0.773279)" d="M1258.02 114.06L1260.42 116.837C1263.79 117.989 1264.99 115.925 1268.26 116.1C1266.66 118.447 1265.1 120.817 1263.57 123.207L1263.93 124.526C1264.27 124.529 1264.61 124.508 1264.95 124.484C1269.2 124.179 1278.46 119.665 1283.41 118.369C1277.4 122.903 1271.23 125.63 1264.19 128.086C1261.84 129.119 1259.28 132.156 1257.22 133.862C1255.05 135.659 1252.92 137.501 1249.93 137.213C1246.32 136.215 1243.98 132.234 1241.82 129.364C1245.99 120.815 1245.81 124.795 1250.78 120.338C1251.53 119.668 1251.32 118.014 1251.38 117.009C1253.22 114.569 1255.11 114.718 1258.02 114.06Z"/><path fill="#7C6D86" transform="scale(1 0.773279)" d="M1967.02 109.044C1971.01 108.801 1975.3 108.374 1979.18 109.575C1981.77 110.378 1984.26 111.824 1985.54 114.308C1988.28 119.593 1986.18 125.082 1984.52 130.32L1991.85 142.323C1981.3 148.729 1975.1 156.189 1968.89 166.761C1967.68 162.63 1966.3 159.141 1964.07 155.448C1962.3 157.24 1960.44 159.168 1958.37 160.615C1955.15 162.858 1947.86 166.999 1943.86 166.177C1941.49 165.689 1940.11 164.414 1938.85 162.437C1933.99 154.807 1940.49 136.124 1942.44 127.507C1950.17 120.913 1958.84 115.098 1967.02 109.044Z"/><path fill="#D8544B" transform="scale(1 0.773279)" d="M75.8223 126.906C76.0376 127.008 76.2458 127.117 76.4446 127.249C79.462 129.252 78.4592 133.356 79.1418 136.478C79.3107 137.251 79.9403 137.423 80.587 137.835L84.995 134.965C86.0356 135.029 87.099 134.859 87.8728 135.609C91.5723 139.199 94.3768 152.866 94.4652 158.021C94.5369 162.204 89.3771 160.587 87.1641 162.872C87.6575 166.526 89.9074 169.164 92.0258 172.054C83.6368 174.306 76.2267 175.175 67.5377 174.942C55.6494 172.957 47.4933 169.513 38.1804 161.794C47.504 144.866 58.125 134.712 75.8223 126.906Z"/><path fill="#D9DB6F" transform="scale(1 0.773279)" d="M2439.1 114.362C2446.02 117.661 2453.38 119.849 2460.07 123.314C2471.45 129.202 2488.18 142.594 2494.35 154.001C2495.7 155.231 2497.12 156.823 2498.62 157.84C2495.28 161.158 2492.49 164.975 2488.89 168.005C2485.95 170.481 2481.67 172.341 2479.16 175.048C2479.15 174.974 2479.15 174.9 2479.13 174.827C2478.6 171.352 2476.61 170.861 2473.88 169.09L2473.36 169.048C2467.97 171.435 2461.58 168.185 2456.27 166.325L2456.26 165.194C2460.07 163.927 2463.91 162.851 2467.77 161.792C2459.1 160.903 2450.44 159.114 2441.76 158.046C2444.65 155.556 2449.07 152.595 2450.29 148.896L2451.33 148.583L2451.08 146.633L2451.23 138.172C2448.91 136.061 2446.83 133.338 2444.73 130.986C2443.11 125.402 2440.98 119.869 2439.1 114.362Z"/><path fill="#F8F6CF" transform="scale(1 0.773279)" d="M2451.23 138.172C2452.96 140.889 2453.42 143.771 2454.96 146.513C2459.86 155.269 2466.2 162.126 2473.36 169.048C2467.97 171.435 2461.58 168.185 2456.27 166.325L2456.26 165.194C2460.07 163.927 2463.91 162.851 2467.77 161.792C2459.1 160.903 2450.44 159.114 2441.76 158.046C2444.65 155.556 2449.07 152.595 2450.29 148.896L2451.33 148.583L2451.08 146.633L2451.23 138.172Z"/><path fill="#F8F6CF" transform="scale(1 0.773279)" d="M2494.35 154.001C2495.7 155.231 2497.12 156.823 2498.62 157.84C2495.28 161.158 2492.49 164.975 2488.89 168.005C2485.95 170.481 2481.67 172.341 2479.16 175.048C2479.15 174.974 2479.15 174.9 2479.13 174.827C2478.6 171.352 2476.61 170.861 2473.88 169.09C2477.81 169.907 2481.86 169.788 2485.47 167.875C2490.81 165.037 2492.69 159.423 2494.35 154.001Z"/><path fill="#E32E84" transform="scale(1 0.773279)" d="M1624.99 163.052C1628.98 162.864 1633.18 162.667 1637.16 163.108C1652.62 164.826 1658.97 180.848 1669.86 189.519C1683.91 200.696 1724.24 204.089 1731.95 213.801C1733.38 215.611 1733.16 216.324 1732.91 218.484C1731.11 220.893 1728.68 221.733 1726 222.843C1702.72 215.234 1681.98 203.777 1661.51 190.58C1656.4 191.292 1651.08 192.015 1645.96 191.027C1637.4 189.373 1624.82 184.54 1619.89 177.19C1618.5 175.117 1617.86 172.956 1618.37 170.462C1619.17 166.627 1621.94 165.058 1624.99 163.052Z"/><path fill="#E32E84" transform="scale(1 0.773279)" d="M2014.41 161.901L2015.51 159.881L2017.24 160.04C2022.16 166.209 2016.57 178.431 2023.62 184.127C2025.16 183.483 2027.84 181.945 2029.46 182.009C2033.32 188.869 2035.25 195.047 2033.09 202.851C2031.07 210.181 2025.65 216.209 2019.1 219.894C2012.04 223.868 2003.49 225.107 1995.65 222.894C1988.82 220.963 1983.42 216.513 1979.98 210.336C1976.61 204.286 1974.61 195.236 1976.58 188.443C1977.17 186.411 1977.69 185.497 1979.33 184.188L1980.48 184.881C1980.58 194.972 1979.4 205.988 1987.43 213.857C1989.04 215.438 1989.94 216.099 1992.15 216.606C1993.79 215.258 1993.71 214.933 1993.93 212.765C1994.03 211.725 1994 210.694 1993.92 209.654L1993.92 206.985C1995.11 193.201 1987.37 177.921 1990.49 166.824C1991.77 167.152 1991.99 172.545 1994.06 174.134C1997.07 173.995 1996.05 172.234 1998.31 171.323L1999.6 173.486C2001.96 172.28 2000.46 168.627 2002.19 166.455C2003.78 170.886 2003.76 175.335 2003.87 179.976C2002.34 182.634 2000.27 185.019 1998.38 187.427C1998.13 194.688 1997.77 201.999 1997.93 209.262C1998 212.571 1997.92 217.651 2000.48 220.098C2003.05 220.627 2005.45 220.865 2008 220.061C2020.5 216.125 2008.16 187.733 2008.47 178.945C2008.69 172.607 2011.56 167.385 2014.41 161.901Z"/><path fill="#F6F6F6" transform="scale(1 0.773279)" d="M2014.41 161.901L2015.51 159.881L2017.24 160.04C2022.16 166.209 2016.57 178.431 2023.62 184.127C2025.16 183.483 2027.84 181.945 2029.46 182.009C2029.27 182.314 2029.11 182.623 2028.95 182.947C2027.3 186.338 2028.71 194.018 2028.6 198.001C2028.31 207.877 2023.76 212.038 2016.94 218.469C2017.12 207.564 2020.84 169.126 2014.41 161.901Z"/><path fill="#F8F6CF" transform="scale(1 0.773279)" d="M410.213 160.922C408.704 158.675 407.187 156.582 405.378 154.561C397.384 152.313 398.881 156.957 393.006 159.669C391.169 160.517 390.477 159.962 388.696 159.288L389.047 158.139L393.299 157.324L394.05 155.571C392.571 152.771 390.465 150.491 388.399 148.119C387.554 145.222 388.4 141.999 389.222 139.184C390.56 134.605 392.489 127.921 396.772 125.574C403.024 134.648 405.743 126.016 415.853 131.52C417.932 129.363 418.574 128.177 421.597 127.618C424.21 129.153 425.266 132.602 426.461 135.246L431.324 134.355C433.165 131.671 434.87 128.55 437.927 127.132C439.958 127.419 440.79 127.423 442.102 129.185C443.531 131.103 444.322 134.312 445.104 136.596L438.302 147.169C435.585 149.404 434.589 149.546 434.181 153.166C432.151 156.84 429.649 160.314 427.327 163.811C425.279 160.238 423.466 156.484 421.555 152.833C417.85 153.278 413.031 158.537 410.213 160.922Z"/><path fill="#D9DB6F" transform="scale(1 0.773279)" d="M431.324 134.355C433.165 131.671 434.87 128.55 437.927 127.132C439.958 127.419 440.79 127.423 442.102 129.185C443.531 131.103 444.322 134.312 445.104 136.596L438.302 147.169C434.21 143.438 432.871 139.589 431.324 134.355Z"/><path fill="#D9DB6F" transform="scale(1 0.773279)" d="M428.586 140.897C430.324 145.046 431.996 149.227 434.181 153.166C432.151 156.84 429.649 160.314 427.327 163.811C425.279 160.238 423.466 156.484 421.555 152.833C422.576 148.517 426.067 144.494 428.586 140.897Z"/><path fill="#D9DB6F" transform="scale(1 0.773279)" d="M415.853 131.52C417.932 129.363 418.574 128.177 421.597 127.618C424.21 129.153 425.266 132.602 426.461 135.246C425.043 139.669 421.82 143.139 418.926 146.671C418.451 145.82 418.006 144.948 417.561 144.081C415.135 139.357 414.19 136.681 415.853 131.52Z"/><path fill="#E32E84" transform="scale(1 0.773279)" d="M402.164 186.338C406.569 189.703 414.387 189.369 419.58 193.317C428.665 200.224 420.255 201.49 422.224 206.968C422.657 208.174 424.721 209.56 424.88 210.792C425.293 213.974 424.21 216.558 422.284 219.025C418.615 223.724 413.222 227.865 407.238 228.589C405.111 229.446 401.558 228.756 399.43 228.179C394.184 226.76 389.72 223.308 387.029 218.587C384.555 214.185 383.94 208.979 385.32 204.122C387.852 195.067 394.513 190.665 402.164 186.338Z"/><path fill="white" transform="scale(1 0.773279)" d="M401.058 190.522C404.213 193.135 405.763 196.166 407.578 199.78C409.783 198.905 412.079 198.271 414.35 197.595C411.311 200.774 406.673 200.893 403.63 204.106L403.487 204.259C403.325 204.416 403.162 204.572 402.999 204.728C400.943 206.678 398.278 209.089 395.218 208.954C392.767 208.847 392.288 208.337 390.74 206.632C390.584 205.611 390.483 204.55 390.58 203.518C391.027 198.784 397.641 193.407 401.058 190.522Z"/><path fill="#E32E84" transform="scale(1 0.773279)" d="M778.736 123.422C788.711 126.408 797.501 133.967 804.433 141.483C809.137 146.583 827.699 166.892 827.792 173.959C827.819 176.068 826.106 180.475 827.203 182.311C833.718 193.208 848.635 201.637 848.083 215.544C845.648 216.513 844.722 217.003 842.048 216.581C836.074 211.506 831.404 202.545 826.809 196.143C809.854 172.519 791.678 149.604 778.736 123.422Z"/><path fill="#D9DB6F" transform="scale(1 0.773279)" d="M2498.62 157.84L2504.98 167.353C2508.85 174.59 2510.93 184.106 2508.53 192.169C2508.14 193.454 2507.49 194.703 2506.79 195.843L2503.82 198.833L2502.92 203.171C2499.68 206.603 2496.61 209.799 2492.67 212.457C2489.49 213.403 2485.97 214.129 2483.35 216.26C2482 209.819 2476.41 202.819 2472.88 197.244C2474.47 196.962 2476.07 196.023 2477.53 195.329L2479.82 193.66C2481.34 192.746 2482.72 190.552 2483.22 188.847C2484.62 184.016 2481.4 179.098 2479.16 175.048C2481.67 172.341 2485.95 170.481 2488.89 168.005C2492.49 164.975 2495.28 161.158 2498.62 157.84Z"/><path fill="#D9DB6F" transform="scale(1 0.773279)" d="M2479.82 193.66C2487.26 196.281 2496.41 198.717 2502.92 203.171C2499.68 206.603 2496.61 209.799 2492.67 212.457C2489.49 213.403 2485.97 214.129 2483.35 216.26C2482 209.819 2476.41 202.819 2472.88 197.244C2474.47 196.962 2476.07 196.023 2477.53 195.329L2479.82 193.66Z"/><path fill="#F8F6CF" transform="scale(1 0.773279)" d="M2472.88 197.244C2474.47 196.962 2476.07 196.023 2477.53 195.329C2478.12 200.68 2479.24 205.637 2483.67 209.152C2486.39 211.319 2489.28 212.026 2492.67 212.457C2489.49 213.403 2485.97 214.129 2483.35 216.26C2482 209.819 2476.41 202.819 2472.88 197.244Z"/><path fill="#D9DB6F" transform="scale(1 0.773279)" d="M2498.62 157.84L2504.98 167.353C2505.3 170.362 2505.93 173.649 2503.88 176.182C2499.92 181.072 2491.99 181.434 2486.18 182.464C2484 180.047 2481.73 177.017 2479.16 175.048C2481.67 172.341 2485.95 170.481 2488.89 168.005C2492.49 164.975 2495.28 161.158 2498.62 157.84Z"/><path fill="#F8F6CF" transform="scale(1 0.773279)" d="M2504.98 167.353C2508.85 174.59 2510.93 184.106 2508.53 192.169C2508.14 193.454 2507.49 194.703 2506.79 195.843C2507.44 191.127 2508.93 185.301 2507.74 180.644C2504.55 179.214 2497.5 181.713 2494.15 182.989C2491.5 183.994 2489.31 185.112 2487.2 187.006L2486.12 189.465C2487.45 192.708 2489.05 194.348 2492.35 195.736C2496.01 197.274 2499.95 198.051 2503.82 198.833L2502.92 203.171C2496.41 198.717 2487.26 196.281 2479.82 193.66C2481.34 192.746 2482.72 190.552 2483.22 188.847C2484.62 184.016 2481.4 179.098 2479.16 175.048C2481.73 177.017 2484 180.047 2486.18 182.464C2491.99 181.434 2499.92 181.072 2503.88 176.182C2505.93 173.649 2505.3 170.362 2504.98 167.353Z"/><path fill="#9C3954" transform="scale(1 0.773279)" d="M1495.67 184.519C1491.88 181.236 1488.04 178.123 1484.96 174.136L1485.13 173.062C1488.38 174.685 1493.33 178.139 1497.05 176.917C1499.2 176.212 1500.93 174.464 1501.9 172.459C1502.42 171.379 1502.48 170.132 1502.46 168.95C1500.83 166.752 1500.02 166.935 1497.45 166.458C1499.55 163.46 1501.74 165.39 1505.07 160.399C1507.57 160.718 1508.21 160.608 1509.99 162.347C1510.49 166.568 1506.92 170.446 1507.57 174.093C1507.62 174.414 1507.68 174.718 1507.78 175.031C1510.7 176.906 1513.35 176.554 1516.7 175.827C1523.36 174.383 1529.12 170.736 1535.41 168.307C1528.32 175.044 1520.91 179.706 1512.22 184.133C1510.8 195.323 1509.05 211.196 1512.37 222.043C1513.88 223.733 1515.8 225.513 1516.75 227.584C1514.09 228.087 1511.76 227.16 1509.26 226.353C1507.9 226.793 1506.15 226.787 1504.71 226.921C1503.39 225.981 1500.92 224.787 1500.6 223.223C1500.05 220.552 1500.84 217.105 1500.65 214.254C1499.99 204.354 1498.58 194.034 1495.67 184.519Z"/><path fill="#F6F6F6" transform="scale(1 0.773279)" d="M1504.71 226.921C1506.77 221.245 1505.55 214.205 1505.49 208.181L1506.2 208.058C1508.69 213.459 1508.97 220.46 1509.26 226.353C1507.9 226.793 1506.15 226.787 1504.71 226.921Z"/><path fill="#D8544B" transform="scale(1 0.773279)" d="M1499.41 184.201C1501.28 184.318 1503.62 184.286 1505.36 184.962C1507.25 185.69 1507.45 186.214 1508.19 187.959C1506.63 191.487 1504.31 192.602 1502.38 195.834L1502.53 197.481L1501.31 197.41C1500.95 196.745 1500.61 196.066 1500.31 195.372C1498.71 191.723 1497.93 187.989 1499.41 184.201Z"/><path fill="#D9DB6F" transform="scale(1 0.773279)" d="M1929.67 187.057C1932.7 187.53 1935.62 188.115 1938.45 189.33C1942.7 191.155 1945.88 194.533 1947.57 198.848C1948.94 202.352 1949.12 206.199 1947.57 209.675C1944.91 215.61 1940.35 218.899 1934.45 221.15C1931.44 221.336 1928.49 221.414 1925.59 220.474C1922.23 219.36 1919.44 216.946 1917.87 213.769C1915.6 209.23 1915.95 203.789 1917.54 199.097C1919.88 192.198 1923.48 190.101 1929.67 187.057Z"/><path fill="white" transform="scale(1 0.773279)" d="M1927.44 191.759C1928.95 192.249 1930.84 192.729 1932.02 193.811C1933.28 194.966 1933 196.022 1933.09 197.652C1931.69 200.351 1930.04 202.339 1927.95 204.526C1926.33 204.677 1924.7 204.882 1923.17 204.268C1921.53 203.614 1921.52 203.152 1920.87 201.616C1921.56 197.715 1924.9 194.639 1927.44 191.759Z"/><path fill="#E32E84" transform="scale(1 0.773279)" d="M573.918 137.759C573.37 146.408 572.452 154.884 574.587 163.392C576.613 165.004 577.48 165.032 579.998 165.32C582.333 164.255 583.405 163.697 584.339 161.145C588.281 150.372 576.641 127.196 586.314 119.78C586.772 119.968 587.723 120.186 587.908 120.631C590.957 127.955 587.891 137.378 588.108 145.056C589.63 145.793 591.142 146.549 592.644 147.326C592.647 145.198 593.929 143.233 594.891 141.396L597.69 142.751C597.389 141.297 598.258 138.226 598.484 136.654L599.566 135.813C601.999 138.368 602.384 141.303 602.306 144.804C602.161 151.331 599.611 156.355 594.888 160.826C589.994 165.457 583.059 168.989 576.189 168.803C571.228 168.669 566.535 166.197 563.166 162.63C559.13 158.355 555.593 151.137 555.806 145.154C555.871 143.304 556.124 141.45 556.404 139.621L557.143 139.175C558.999 145.63 560.578 157.825 566.304 161.736L568.227 161.798C571.702 157.93 570.572 147.236 570.298 142.173C570.003 136.732 563.186 127.854 566.041 122.928L567.639 122.537L568.718 126.242C571.644 127.021 575.805 125.001 578.092 125.925L579.145 127.972C577.826 131.606 576.765 135.021 573.918 137.759Z"/><defs><linearGradient id="gradient_0" gradientUnits="userSpaceOnUse" x1="595.61554" y1="142.2576" x2="588.44482" y2="155.62981"><stop offset="0" stop-color="#F6DCE7"/><stop offset="1" stop-color="#FFFFFB"/></linearGradient></defs><path fill="url(#gradient_0)" transform="scale(1 0.773279)" d="M598.484 136.654C599.179 143.51 599.692 150.47 594.998 156.187C593.59 157.902 593.065 158.251 590.9 158.669C588.933 156.871 588.108 155.404 587.981 152.662C587.865 150.145 588.006 147.573 588.108 145.056C589.63 145.793 591.142 146.549 592.644 147.326C592.647 145.198 593.929 143.233 594.891 141.396L597.69 142.751C597.389 141.297 598.258 138.226 598.484 136.654Z"/><path fill="#F6F6F6" transform="scale(1 0.773279)" d="M1008.7 195.807C1008.9 193.87 1009.23 191.879 1009.69 189.988C1010.82 185.383 1014.47 178.246 1018.64 175.73C1024 176.864 1021.34 183.234 1023.59 186.726C1025.28 189.352 1029.68 192.274 1032.07 194.447L1029.97 197.875L1033.95 198.294L1038.36 200.226L1038.49 201.623C1031.79 208.167 1022.56 217.377 1012.99 218.731C1010.17 217.871 1008.7 216.94 1007.3 214.196C1007.27 214.141 1007.24 214.086 1007.22 214.03L1007.58 211.462C1007.36 208.491 1007.68 205.951 1008.26 203.04C1009.23 200.412 1009.07 198.499 1008.7 195.807Z"/><path fill="#D9DB6F" transform="scale(1 0.773279)" d="M1008.7 195.807C1008.9 193.87 1009.23 191.879 1009.69 189.988C1010.82 185.383 1014.47 178.246 1018.64 175.73C1024 176.864 1021.34 183.234 1023.59 186.726C1025.28 189.352 1029.68 192.274 1032.07 194.447L1029.97 197.875C1022.69 198.827 1014.89 199.656 1008.26 203.04C1009.23 200.412 1009.07 198.499 1008.7 195.807Z"/><path fill="#F8F6CF" transform="scale(1 0.773279)" d="M1032.07 194.447L1029.97 197.875C1022.69 198.827 1014.89 199.656 1008.26 203.04C1009.23 200.412 1009.07 198.499 1008.7 195.807C1009.23 196.687 1009.81 197.009 1010.7 197.448C1014.47 199.312 1027.93 195.844 1032.07 194.447Z"/><path fill="#D9DB6F" transform="scale(1 0.773279)" d="M1007.22 214.03C1019.37 215.552 1026.41 203.199 1038.49 201.623C1031.79 208.167 1022.56 217.377 1012.99 218.731C1010.17 217.871 1008.7 216.94 1007.3 214.196C1007.27 214.141 1007.24 214.086 1007.22 214.03Z"/><path fill="#D9DB6F" transform="scale(1 0.773279)" d="M1029.97 197.875L1033.95 198.294C1025.49 203.928 1015.79 204.575 1007.58 211.462C1007.36 208.491 1007.68 205.951 1008.26 203.04C1014.89 199.656 1022.69 198.827 1029.97 197.875Z"/><path fill="#F8F6CF" transform="scale(1 0.773279)" d="M2444.73 130.986C2444.26 130.754 2443.81 130.505 2443.36 130.238C2439.05 127.682 2435.22 124.434 2433.97 119.363C2432.98 115.431 2433.61 111.268 2435.71 107.801C2438.08 103.917 2442.02 101.495 2446.39 100.454C2454.62 98.4953 2464.22 102.009 2471.17 106.271C2498.9 123.283 2521.58 167.058 2528.94 197.838C2512.27 169.626 2496.71 118.535 2463.56 105.876C2457.07 103.394 2448.36 102.206 2441.81 105.159C2439.9 106.022 2438.33 107.063 2437.56 109.109C2437.73 111.169 2438.03 112.578 2439.1 114.362C2440.98 119.869 2443.11 125.402 2444.73 130.986Z"/><path fill="#B2B2B2" transform="scale(1 0.773279)" d="M201.596 195.087C213.196 195.128 224.024 193.833 235.355 191.368C231.058 208.537 218.543 221.987 207.613 235.379C208.791 225.244 210.567 214.887 210.322 204.671C212.959 201.811 215.546 198.88 218.252 196.088C212.541 196.268 207.191 196.508 201.596 195.087Z"/><path fill="#D8544B" transform="scale(1 0.773279)" d="M2262.16 208.442C2261.83 206.811 2261.42 205.001 2261.45 203.335C2261.5 200.904 2262.49 198.981 2264.25 197.339C2267.16 195.719 2269.2 196.171 2272.32 196.785C2277.18 198.078 2283.31 196.131 2287.03 200.64C2287.21 202.752 2287.26 203.407 2285.82 205.137C2284.16 207.135 2277.37 210.017 2276.63 211.648C2274.46 216.459 2277.67 218.682 2271.06 221.542C2268.4 221.219 2266.99 220.808 2265.26 218.608C2262.83 215.52 2261.7 212.403 2262.16 208.442Z"/><path fill="#D9DB6F" transform="scale(1 0.773279)" d="M2483.35 216.26C2467.65 215.951 2473.3 211.201 2464.82 208.911C2461.39 207.983 2458.19 210.011 2454.87 207.476C2454.03 206.123 2453.54 204.895 2453.54 203.294C2453.53 199.255 2454.59 196.538 2457.45 193.692C2459.44 192.81 2460.58 192.611 2462.71 193.099C2465.24 196.142 2464.93 199.871 2464.99 203.733C2467.35 202.864 2467.57 200.103 2469.22 198.095C2469.96 197.193 2471.72 197.361 2472.88 197.244C2476.41 202.819 2482 209.819 2483.35 216.26Z"/><path fill="#D8544B" transform="scale(1 0.773279)" d="M910.065 173.033C913.986 172.934 918.04 172.765 921.846 173.848C927.623 175.491 936.074 179.035 939.055 184.489C940.37 186.894 940.188 189.031 939.429 191.565C936.57 187.178 933.386 183.164 928.699 180.636C921.862 176.948 913.556 176.881 906.236 179.093C899.548 182.661 896.065 186.071 892.081 192.427C892.076 196.726 892.905 202.754 890.279 206.329L888.862 205.583C887.468 200.605 888.415 195.127 890.337 190.403C894.176 180.968 901.199 176.806 910.065 173.033Z"/><path fill="#3DADD4" transform="scale(1 0.773279)" d="M1139.22 208.7C1148.43 207.577 1155.22 208.91 1162.99 214.031C1173.4 221.308 1181.7 223.776 1194.39 222.484L1194.21 224.702C1192.46 226.359 1191.73 226.89 1189.36 227.363C1172.94 230.636 1163.55 217.165 1149.9 212.468C1146.25 211.212 1141.03 213.434 1138.3 211.608L1139.22 208.7Z"/><path fill="#3DADD4" transform="scale(1 0.773279)" d="M1191.77 211.076C1205.66 211.44 1216.69 222.249 1229.33 226.956C1234.61 226.11 1239.97 225.591 1245.29 224.958C1240.41 227.403 1235.13 228.993 1229.97 230.728C1210.95 228.408 1203.07 212.281 1183 216.169L1182.19 215.291C1184.71 213.04 1188.6 212.134 1191.77 211.076Z"/><path fill="#3DADD4" transform="scale(1 0.773279)" d="M1067.05 208.936C1082.5 208.538 1090.15 220.011 1103.7 223.229C1108.15 224.286 1114.06 223.226 1118.7 223.401L1118.7 224.736L1115.14 227.476C1094.89 230.853 1091.38 217.513 1075.4 213.405C1071.45 212.389 1066.41 213.034 1062.27 212.958C1062.97 211.027 1065.34 210.058 1067.05 208.936Z"/><path fill="#3DADD4" transform="scale(1 0.773279)" d="M1112.92 212.117C1136.35 211.22 1138.88 227.589 1163.41 227.224C1162.45 229.317 1159.11 230.315 1157.04 231.368C1143.06 230.303 1133.91 219.882 1120.97 216.389C1115.63 214.948 1111.34 217.355 1106.34 216.625C1107.65 214.387 1110.65 213.365 1112.92 212.117Z"/><path fill="#D9DB6F" transform="scale(1 0.773279)" d="M2443.78 175.308C2444.69 175.737 2445.61 176.267 2446.33 176.984C2449.57 180.215 2452.03 187.643 2452.04 192.159C2452.04 194.778 2451.61 195.64 2449.82 197.458L2447.59 197.34L2447.46 197.214C2443.51 193.227 2438.35 187.823 2438.38 182.045C2440.22 179.968 2440.73 179.728 2443.38 178.88L2443.78 175.308Z"/><path fill="#D9DB6F" transform="scale(1 0.773279)" d="M447.62 142.546C447.651 142.566 447.682 142.584 447.712 142.606C451.12 145.088 452.566 149.191 454.283 152.909C452.043 156.21 449.349 159.286 446.853 162.4C446.668 162.357 446.696 162.367 446.487 162.295C443.644 161.317 441.471 155.257 440.222 152.637L447.62 142.546Z"/><path fill="#D89E98" transform="scale(1 0.773279)" d="M2220.85 160.961C2217.85 155.737 2212.22 145.453 2213.65 139.524L2215.14 139.418C2219.82 145.803 2218.12 154.301 2224.26 160.9C2222.76 162.027 2221.63 163.045 2220.57 164.601C2213.03 157.185 2206.23 160.229 2197.25 158.683L2197.42 156.919C2197.79 156.637 2198.17 156.395 2198.6 156.208C2203.77 153.956 2215.78 159.055 2220.85 160.961Z"/><path fill="#D8544B" transform="scale(1 0.773279)" d="M896.313 143.448C902.857 148.397 905.717 160.944 907.181 168.653L904.402 167.593C899.024 161.888 897.868 150.954 896.313 143.448Z"/><path fill="#D8544B" transform="scale(1 0.773279)" d="M882.43 151.724C889.013 155.406 895.184 165.474 897.814 172.328C897.09 172.454 896.422 172.354 895.752 172.067C888.902 169.135 884.957 158.291 882.43 151.724Z"/><path fill="#D8544B" transform="scale(1 0.773279)" d="M872.652 166.886C874.197 167.277 875.805 167.904 877.24 168.59C882.439 171.072 887.104 175.376 889.038 180.862C882.586 179.249 876.91 171.659 872.652 166.886Z"/><path fill="#EAAFCE" transform="scale(1 0.773279)" d="M1993.92 209.654C1991.69 207.662 1989.54 204.832 1988.55 201.99C1987.55 199.105 1986.86 194.957 1988.19 192.193C1991.65 195.61 1990.55 202.429 1993.92 206.985L1993.92 209.654Z"/><path fill="#D9DB6F" transform="scale(1 0.773279)" d="M2450.29 148.896C2446.76 148.2 2441.23 147.87 2438.99 144.932C2439.27 144.737 2439.57 144.574 2439.88 144.444C2443.22 143.075 2448.06 145.319 2451.08 146.633L2451.33 148.583L2450.29 148.896Z"/><path fill="#F6F6F6" transform="scale(1 0.773279)" d="M580.93 193.173L582.168 193.741L582.476 195.187C579.396 196.451 576.264 197.491 573.099 198.519L571.574 197.724L571.56 196.237C574.258 194.27 577.732 193.845 580.93 193.173Z"/></svg>